<?xml version="1.0"?><!DOCTYPE svg  PUBLIC '-//W3C//DTD SVG 1.1//EN'  'http://www.w3.org/Graphics/SVG/1.1/DTD/svg11.dtd'><svg enable-background="new 0 0 512 512" id="Layer_2" version="1.1" viewBox="0 0 512 512" xml:space="preserve" xmlns="http://www.w3.org/2000/svg" xmlns:xlink="http://www.w3.org/1999/xlink"><g><path d="M442.9,430.9C487.5,383.3,512,321.5,512,256c0-68.4-26.6-132.7-75-181C388.7,26.6,324.4,0,256,0    S123.3,26.6,75,75C26.6,123.3,0,187.6,0,256c0,65.5,24.5,127.3,69.1,174.9c0.1,0.2,0.3,0.3,0.4,0.5c1.8,1.9,3.6,3.8,5.5,5.6    c48.4,48.4,112.6,75,181,75s132.7-26.6,181-75c1.9-1.9,3.7-3.8,5.5-5.7C442.6,431.2,442.8,431.1,442.9,430.9z M256,30    c124.6,0,226,101.4,226,226c0,51.4-17.3,98.8-46.2,136.8c-23.9-47-65.2-82.4-114.2-99.4c34.5-21.8,57.4-60.3,57.4-104    c0-67.8-55.2-123-123-123s-123,55.2-123,123c0,43.7,22.9,82.2,57.4,104c-49,16.9-90.3,52.4-114.2,99.4C47.3,354.8,30,307.4,30,256    C30,131.4,131.4,30,256,30z M256,282.4c-51.3,0-93-41.7-93-93s41.7-93,93-93s93,41.7,93,93S307.3,282.4,256,282.4z M97.9,417.3    c26.6-63.1,89-104.9,158.1-104.9c69.1,0,131.5,41.8,158.1,104.9c-40.8,40-96.6,64.7-158.1,64.7C194.5,482,138.7,457.3,97.9,417.3z    " id="XMLID_1113_"/></g></svg>